<svg width="25" height="27" viewBox="0 0 25 27" fill="none" xmlns="http://www.w3.org/2000/svg">
<path fill-rule="evenodd" clip-rule="evenodd" d="M9.28738 1.00003C11.3948 0.855995 13.4911 1.40864 15.2509 2.57223C17.0107 3.73581 18.3357 5.44528 19.0204 7.4354C19.3094 8.19924 20.3684 11.8621 19.3544 12.6289C19.2117 12.7234 19.0498 12.785 18.8802 12.8093C18.7107 12.8337 18.5379 12.8202 18.3742 12.7697C18.2106 12.7193 18.0603 12.6332 17.9342 12.5177C17.8082 12.4022 17.7095 12.2603 17.6454 12.1021V10.2617C17.5145 9.38335 17.2774 8.52397 16.9394 7.7023C16.2082 6.02781 14.9011 4.6681 13.2531 3.86777C11.6051 3.06743 9.72443 2.879 7.94938 3.33636L11.2554 6.83688C11.7717 7.226 12.1912 7.72828 12.4814 8.3048C12.5019 8.61205 12.4365 8.91895 12.2922 9.19132C12.148 9.46368 11.9306 9.69082 11.6644 9.84742L8.61838 13.0054C8.28838 13.3489 7.92038 14.1138 7.13238 13.9465C6.49626 13.6437 5.9658 13.158 5.60938 12.5522L2.34038 9.16624L2.26638 9.20408C2.03708 10.4726 2.02457 11.7705 2.22938 13.0432C3.01038 16.1932 6.31438 20.0373 10.6614 19.2903C11.438 19.1821 12.1988 18.9815 12.9274 18.6928L13.8934 18.2038L19.9114 24.451C20.3443 24.6946 20.8519 24.7717 21.3381 24.6676C21.8242 24.5636 22.2552 24.2856 22.5494 23.8863C22.7327 23.5098 22.8248 23.0958 22.8184 22.6774C22.812 22.2591 22.7072 21.848 22.5124 21.4773V21.3986C22.1534 21.062 21.7774 20.8011 21.4354 20.4575L18.2004 17.1074C17.7254 16.6264 16.2164 15.5956 16.9744 14.548C17.9194 13.2424 19.4264 15.3387 19.9464 15.8655L22.1004 18.1242C23.4004 19.4417 25.6874 21.0779 24.7374 24.0327C24.5729 24.5621 24.2997 25.0517 23.9351 25.4704C23.5705 25.889 23.1226 26.2277 22.6196 26.4648C22.1166 26.7019 21.5697 26.8323 21.0134 26.8477C20.4572 26.8631 19.9038 26.7632 19.3884 26.5543C18.5892 26.147 17.901 25.5532 17.3824 24.8235L13.4104 20.7961C12.6634 20.9953 11.9194 21.2413 11.0704 21.3936C6.27038 22.28 2.52138 18.6271 1.11538 15.8237C0.0993819 13.7469 -0.213579 11.3982 0.223378 9.12939C0.467817 8.11278 0.829206 7.12765 1.30038 6.19354C1.68605 6.1685 2.07335 6.19395 2.45238 6.26923L7.31838 11.3124L8.24738 10.4091L9.99338 8.56871L9.84438 8.41435L6.12938 4.4627C5.7064 4.14836 5.35248 3.75116 5.08938 3.29553V2.27973C5.77938 2.01085 6.49538 1.58262 7.28138 1.33863L9.28738 1.00003Z" fill="white"/>
</svg>
