<svg width="25" height="29" viewBox="0 0 25 29" fill="none" xmlns="http://www.w3.org/2000/svg">
<path fill-rule="evenodd" clip-rule="evenodd" d="M22.8004 4.85004C22.8001 4.87713 22.8089 4.90355 22.8254 4.92504C23.0233 4.83875 23.2463 4.82983 23.4504 4.90004C23.6535 4.9478 23.8398 5.04976 23.9895 5.19504C24.1392 5.34033 24.2466 5.5235 24.3004 5.72504C24.3462 5.97239 24.3546 6.2252 24.3254 6.47504V8.22504C24.3364 9.07104 24.3504 10.014 24.3504 10.9C24.3816 11.3249 24.3732 11.7517 24.3254 12.175V12.65L24.2254 13.6C24.1114 14.073 24.0734 14.569 23.9254 15.025C23.649 15.9749 23.2631 16.8893 22.7754 17.75C22.138 18.8549 21.3181 19.8439 20.3504 20.675L20.1004 20.95C19.8583 21.2007 19.5993 21.4346 19.3254 21.65L19.0004 22C18.7737 22.2328 18.5315 22.45 18.2754 22.65L17.8004 23.15C17.5266 23.3656 17.2676 23.5994 17.0254 23.85L16.7504 24.15C16.3264 24.4897 15.9256 24.8571 15.5504 25.25C15.0985 25.7404 14.6141 26.1998 14.1004 26.625C13.9094 26.769 13.7724 26.976 13.5754 27.125C13.2544 27.368 13.0244 27.76 12.7004 28C12.5278 28.1303 12.3261 28.2166 12.1126 28.2514C11.8992 28.2863 11.6805 28.2687 11.4754 28.2C11.3164 28.1301 11.1742 28.0269 11.0584 27.8976C10.9425 27.7682 10.8556 27.6155 10.8035 27.4498C10.7514 27.2841 10.7354 27.1092 10.7564 26.9367C10.7774 26.7643 10.8351 26.5984 10.9254 26.45C11.2114 26.1031 11.5389 25.7924 11.9004 25.525L12.3754 25.025C12.6494 24.8096 12.9083 24.5757 13.1504 24.325L13.4004 24.05C13.5688 23.911 13.7275 23.7607 13.8754 23.6C13.8964 23.579 13.9574 23.571 13.9754 23.55C13.9934 23.529 13.9754 23.474 14.0004 23.45C14.2077 23.2309 14.4335 23.0302 14.6754 22.85C14.8664 22.706 15.0034 22.499 15.2004 22.35L15.6254 21.9C15.9968 21.5201 16.389 21.1612 16.8004 20.825L17.2754 20.325C17.5493 20.1095 17.8083 19.8757 18.0504 19.625L18.3254 19.325C19.736 18.2206 20.8168 16.7507 21.4504 15.075C22.2504 13.114 21.9944 9.93704 22.0004 7.22504C21.05 7.2394 20.1038 7.09578 19.2004 6.80004C18.7784 6.66204 18.4004 6.61304 18.0004 6.45004C16.8539 5.98847 15.7498 5.42803 14.7004 4.77504C14.1584 4.43204 13.6734 4.07004 13.1754 3.70004C12.9433 3.56551 12.7326 3.39698 12.5504 3.20004H12.5254V3.22504C12.3678 3.34065 12.2176 3.46589 12.0754 3.60004C11.7174 3.86604 11.3624 4.14504 11.0004 4.40004C9.88772 5.15047 8.69754 5.77908 7.45043 6.27504C6.07849 6.87925 4.59935 7.20229 3.10043 7.22504V10.95C3.04513 12.0065 3.12919 13.0656 3.35043 14.1C3.8586 16.1372 5.02796 17.9484 6.67543 19.25L7.10043 19.7C7.47179 20.08 7.86407 20.4388 8.27543 20.775L8.60043 21.125C8.82719 21.3578 9.0694 21.5749 9.32543 21.775L9.80043 22.275C10.1111 22.4855 10.3749 22.7579 10.5754 23.075C10.6789 23.3144 10.7056 23.58 10.6519 23.8352C10.5982 24.0904 10.4667 24.3227 10.2754 24.5C10.0739 24.6441 9.83657 24.7297 9.58952 24.7473C9.34246 24.765 9.09534 24.714 8.87543 24.6C8.57543 24.41 8.38043 24.062 8.10043 23.85C7.51143 23.4 7.06543 22.8 6.47543 22.35L6.00043 21.85C5.71769 21.6267 5.45041 21.3845 5.20043 21.125L4.92543 20.825C4.43524 20.4526 3.99791 20.0152 3.62543 19.525C3.26943 19.053 2.84943 18.613 2.52543 18.1C1.79375 16.8666 1.26216 15.5249 0.950427 14.125C0.731018 12.7617 0.663939 11.3782 0.750427 10C0.750427 9.02104 0.772427 7.98904 0.775427 7.05004C0.702425 6.55942 0.719368 6.0596 0.825427 5.57504C0.924221 5.37979 1.06926 5.21165 1.24792 5.08529C1.42657 4.95892 1.63341 4.87816 1.85043 4.85004C1.96924 4.84369 2.08814 4.86068 2.20043 4.90004C2.31443 4.86825 2.43208 4.85144 2.55043 4.85004C2.89002 4.90333 3.23584 4.90333 3.57543 4.85004C3.80843 4.79704 4.07543 4.81304 4.32543 4.75004C5.082 4.58811 5.82566 4.37086 6.55043 4.10004C7.96226 3.48408 9.29648 2.70368 10.5254 1.77504C10.7544 1.60704 10.9504 1.36904 11.1754 1.20004C11.2275 1.17947 11.2777 1.15437 11.3254 1.12504L11.4754 0.725041C11.5968 0.571079 11.7478 0.443062 11.9196 0.348584C12.0914 0.254106 12.2804 0.195091 12.4754 0.175041C12.6944 0.162192 12.913 0.206063 13.1101 0.302412C13.3072 0.398761 13.4761 0.544329 13.6004 0.725041C13.6714 0.839041 13.6504 0.975041 13.7254 1.10004C13.835 1.19282 13.9521 1.27644 14.0754 1.35004C14.4384 1.62204 14.7754 1.96104 15.1504 2.22504C16.4361 3.15219 17.8513 3.88505 19.3504 4.40004C20.0254 4.62404 20.7384 4.68104 21.5004 4.85004C21.9326 4.89392 22.3682 4.89392 22.8004 4.85004ZM13.7254 11.925H16.4004C16.9798 11.8079 17.5819 11.9248 18.0754 12.25C18.2037 12.3605 18.3044 12.4994 18.3695 12.6556C18.4346 12.8119 18.4623 12.9812 18.4504 13.15C18.427 13.3819 18.3399 13.6027 18.1987 13.788C18.0575 13.9733 17.8677 14.1159 17.6504 14.2C17.2299 14.2764 16.8007 14.2933 16.3754 14.25H13.7254C13.7334 15.158 13.7418 16.0664 13.7504 16.975C13.7953 17.4096 13.77 17.8485 13.6754 18.275C13.5926 18.4579 13.4681 18.6188 13.3118 18.7447C13.1554 18.8706 12.9717 18.9581 12.7754 19C12.6066 19.0299 12.4332 19.0206 12.2685 18.973C12.1038 18.9253 11.9522 18.8405 11.8254 18.725C11.3354 18.366 11.4004 17.774 11.4004 16.95V14.25H8.75043C8.44877 14.3142 8.13696 14.314 7.83539 14.2494C7.53383 14.1848 7.2493 14.0572 7.00043 13.875C6.86637 13.7593 6.76392 13.6114 6.7027 13.4453C6.64148 13.2791 6.62349 13.1001 6.65043 12.925C6.68279 12.7418 6.75572 12.5682 6.86386 12.4168C6.97199 12.2654 7.11262 12.1401 7.27543 12.05C7.72091 11.9175 8.18834 11.875 8.65043 11.925H11.4004V9.30004C11.4004 8.38104 11.3284 7.84404 11.8754 7.45004C11.994 7.34668 12.1338 7.27069 12.2851 7.22749C12.4363 7.18428 12.5952 7.17491 12.7504 7.20004C12.9485 7.23767 13.1342 7.3235 13.2911 7.44994C13.4481 7.57639 13.5715 7.73957 13.6504 7.92504C13.7446 8.3516 13.7699 8.79048 13.7254 9.22504V11.925Z" fill="white"/>
</svg>
