<svg width="25" height="22" viewBox="0 0 25 22" fill="none" xmlns="http://www.w3.org/2000/svg">
<path fill-rule="evenodd" clip-rule="evenodd" d="M1.32103 0L1.59203 0.0267143L1.32103 0ZM23.408 0L23.679 0.0267143L23.408 0ZM10.095 0.0267143H19.546C21.178 0.0267143 22.914 -0.0832857 23.846 0.458071C24.908 1.07329 24.93 2.068 24.93 3.5585C25.0087 4.18743 24.917 4.82232 24.661 5.42143C23.772 6.81607 21.888 6.60786 19.309 6.60786H6.91103C5.15803 6.60786 2.61103 6.88364 1.42303 6.31164C0.150033 5.69329 0.100033 4.67971 0.100033 3.0195C0.0383546 2.45751 0.106104 1.89139 0.300033 1.34829C0.473437 1.03729 0.734611 0.761353 1.06379 0.541375C1.39296 0.321396 1.78151 0.163136 2.20003 0.0785714L10.095 0.0267143ZM2.84603 2.23771L2.87903 2.56143L2.84603 2.23771ZM5.18303 2.23771C4.50703 2.43571 3.90003 2.30764 3.42103 2.61486C2.27203 3.35657 3.48003 4.23343 4.53903 4.3945L17.514 4.42121C19.406 4.42121 21.759 4.67893 22.053 3.39979C22.334 2.178 19.66 2.24007 18.225 2.24086H5.18303V2.23771ZM2.84603 4.15171L2.87903 4.42121L2.84603 4.15171ZM1.38903 6.6055H1.52403V6.63221L1.38903 6.6055ZM23.476 6.6055H23.612V6.63221L23.476 6.6055ZM1.25303 7.6835L1.69303 7.71021L1.25303 7.6835ZM23.34 7.6835L23.78 7.71021L23.34 7.6835ZM2.50703 7.711H17.751C19.856 7.711 22.741 7.44936 23.951 8.19657C24.951 8.81336 24.933 9.85757 24.933 11.297C24.9808 11.7837 24.9472 12.2731 24.833 12.7529C24.172 14.4273 22.018 14.2898 19.244 14.2898H6.84303C4.72703 14.2898 2.19903 14.4956 1.01603 13.7508C0.634638 13.4816 0.352731 13.1366 0.200033 12.7521C-0.0590446 11.5366 -0.0360067 10.2943 0.268033 9.08521C0.713033 8.22957 1.43203 8.08421 2.50703 7.711ZM5.38603 9.8945C4.71203 10.1027 3.99203 9.95028 3.48603 10.2449C2.36503 10.9018 3.36903 11.8651 4.40103 12.0521C5.84046 12.1836 7.29301 12.2018 8.73703 12.1063H17.511C19.443 12.1063 21.678 12.342 22.05 11.0849C22.404 9.88821 19.628 9.89843 18.29 9.89843H5.38603V9.8945ZM2.84503 9.92121L2.87903 10.2449L2.84503 9.92121ZM2.84503 12.1047L3.31903 12.078H2.87903L2.84503 11.8085V12.1047ZM1.38903 15.3411H1.52403V15.3678L1.38903 15.3411ZM20.123 15.3678C22.087 15.3474 23.578 15.3552 24.391 16.2321C24.6318 16.5 24.8043 16.802 24.899 17.1215C25.0417 18.1884 25.0303 19.2646 24.865 20.3296C24.7246 20.7052 24.4688 21.0479 24.12 21.3274C23.009 22.2082 20.253 21.9474 18.056 21.9474L5.96203 21.9741C2.98603 21.9741 0.871033 22.1988 0.169033 20.3296C0.0734445 19.8658 0.0502732 19.3945 0.100033 18.9263C0.100033 17.3659 0.134033 16.3578 1.28603 15.7449C2.23403 15.2405 4.18603 15.3945 5.75803 15.3945H15.958L20.123 15.3678ZM2.84603 17.5788L2.88003 17.9025L2.84603 17.5788ZM5.21703 17.5788C4.51703 17.7854 3.86503 17.6409 3.38803 17.9834C2.35303 18.7259 3.48803 19.5792 4.50603 19.7356L17.48 19.7623C19.388 19.7623 21.709 20.0239 22.053 18.7644C22.388 17.5387 19.665 17.578 18.259 17.578H5.21703V17.5788ZM2.84603 19.4928L2.88003 19.7623L2.84603 19.4928ZM1.38903 21.9458L1.55803 21.9725L1.38903 21.9458ZM23.476 21.9458L23.645 21.9725L23.476 21.9458Z" fill="white"/>
</svg>
