<svg width="20" height="25" viewBox="0 0 20 25" fill="none" xmlns="http://www.w3.org/2000/svg">
<path fill-rule="evenodd" clip-rule="evenodd" d="M15.5432 2.33982V8.27028C15.5432 9.3195 15.4984 10.4914 14.36 10.3375C13.2216 10.1836 13.3416 9.157 13.3424 7.88903C13.3334 6.03956 13.3243 4.1906 13.3152 2.34216H5.88724C4.81204 2.34216 3.36964 2.21325 2.75124 2.69607C2.05844 3.23591 2.28324 5.89919 2.28324 7.18435V17.8726C2.28324 19.2133 2.01764 21.3367 2.61364 22.1695C3.06164 22.7945 4.25524 22.7164 5.33364 22.7164H12.24C13.5616 22.7164 15.112 22.4625 15.4312 23.4781C15.9432 25.107 14.0504 24.9742 12.6528 24.9742H4.62164C3.36804 24.9742 1.82964 25.1218 1.07284 24.6203C-0.251963 23.7414 0.0800374 21.2367 0.0800374 19.0695V6.80075C0.0800374 5.37419 -0.159963 2.38747 0.272837 1.38747C0.932837 -0.121903 2.46164 0.0780972 4.59444 0.0780972H14.3056C15.3976 0.0780972 17.5056 -0.110965 18.3768 0.156222C20.3024 0.757003 19.9448 2.91482 19.9448 5.35232V19.2875C19.9448 21.5703 20.372 24.5851 18.3488 24.864C18.2109 24.7942 18.0888 24.698 17.9896 24.5813C17.8904 24.4646 17.8161 24.3296 17.7712 24.1843C17.7622 22.6609 17.7531 21.1375 17.744 19.614C17.735 15.4614 17.7259 11.3083 17.7168 7.15466C17.7168 4.44607 18.4 2.32888 15.5432 2.33982Z" fill="white"/>
</svg>
