<svg width="25" height="25" viewBox="0 0 25 25" fill="none" xmlns="http://www.w3.org/2000/svg">
<path fill-rule="evenodd" clip-rule="evenodd" d="M11.9483 0.0250033C14.9276 -0.135642 17.8608 0.813463 20.1813 2.689C20.7103 3.125 21.8053 3.57 21.5613 4.656C21.5384 4.81033 21.4842 4.95836 21.4022 5.09109C21.3202 5.22382 21.212 5.33845 21.0843 5.428C20.0263 6.106 19.1983 4.728 18.6243 4.307C17.127 3.25644 15.3946 2.58958 13.5793 2.365L12.1733 2.29C11.1184 2.38475 10.0758 2.58576 9.06129 2.89C7.31609 3.51604 5.77579 4.60827 4.60765 6.04809C3.4395 7.4879 2.68819 9.22025 2.43529 11.057C2.22723 12.3146 2.26972 13.6009 2.56029 14.842C2.80853 15.8735 3.20606 16.8633 3.74029 17.78C5.11322 20.0721 7.33025 21.7344 9.91529 22.41C10.9513 22.7439 12.0464 22.8543 13.1283 22.734C14.038 22.6566 14.9377 22.4891 15.8143 22.234C18.1818 21.3857 20.1731 19.7277 21.4363 17.553C22.0155 16.4891 22.4143 15.3364 22.6163 14.142L22.7413 12.723C22.9163 11.665 22.2203 10.36 22.4653 9.536C22.5232 9.36632 22.6188 9.21195 22.7448 9.08442C22.8709 8.9569 23.0241 8.85954 23.1931 8.79961C23.3621 8.73969 23.5425 8.71877 23.7207 8.7384C23.8989 8.75804 24.0704 8.81773 24.2223 8.913C24.6162 9.36756 24.8225 9.95494 24.7993 10.556C25.1053 12.3224 25.0026 14.1354 24.4993 15.856C23.9422 17.9124 22.8641 19.7903 21.3691 21.3082C19.8742 22.8261 18.0129 23.9327 15.9653 24.521C15.0137 24.7416 14.0491 24.9015 13.0773 25L12.0003 24.975L10.6703 24.875C9.52362 24.6578 8.40425 24.3154 7.33228 23.854C5.09413 22.8287 3.20877 21.1649 1.91292 19.0717C0.617068 16.9785 -0.0315105 14.5492 0.0486132 12.0886C0.128737 9.62807 0.933991 7.24603 2.36327 5.24157C3.79256 3.23711 5.78216 1.69957 8.08228 0.822003C8.86544 0.537176 9.67178 0.320701 10.4923 0.175003L11.9483 0.0250033ZM18.0223 6.275V11.355L10.7223 11.504V7.62L18.0223 6.275ZM5.44729 11.629V8.591L9.26229 7.744L9.23729 11.529L5.44729 11.629ZM18.0223 12.849V18.749L10.7223 17.579V12.874L18.0223 12.849ZM5.44729 12.874H9.26229V17.48L5.44729 16.733V12.873V12.874Z" fill="white"/>
</svg>
