<svg width="25" height="24" viewBox="0 0 25 24" fill="none" xmlns="http://www.w3.org/2000/svg">
<path fill-rule="evenodd" clip-rule="evenodd" d="M12.38 0L12.914 0.054C13.426 1.01 13.956 1.987 14.514 2.909C14.984 3.686 15.359 4.515 15.821 5.279C16.11 5.758 16.339 6.266 16.621 6.734C16.6747 6.9187 16.7761 7.08599 16.915 7.219C17.0963 7.2788 17.2845 7.31509 17.475 7.327C17.968 7.461 18.499 7.487 19.022 7.627C19.545 7.767 20.138 7.8 20.7 7.946C21.942 8.269 23.273 8.434 24.542 8.7C24.8004 8.99407 24.9605 9.36151 25 9.751C24.88 9.85478 24.7726 9.97225 24.68 10.101C24.3594 10.4068 24.0566 10.7306 23.773 11.071C23.514 11.418 23.098 11.671 22.839 12.014C22.6424 12.2706 22.4286 12.5135 22.199 12.741L21.906 13.01C21.5977 13.3948 21.2682 13.762 20.919 14.11C20.607 14.441 20.298 14.775 19.985 15.11C19.876 15.1699 19.7828 15.2549 19.7132 15.3581C19.6437 15.4612 19.5997 15.5795 19.585 15.703C19.6597 15.9841 19.6957 16.2741 19.692 16.565L19.852 17.665C19.8309 17.8184 19.7776 17.9656 19.6957 18.097C19.6137 18.2285 19.5049 18.3411 19.3765 18.4275C19.248 18.514 19.1027 18.5724 18.9501 18.5988C18.7975 18.6253 18.6411 18.6192 18.491 18.581C17.631 18.294 17.815 17.588 17.611 16.669L17.584 16.103C17.4757 15.608 17.431 15.1013 17.451 14.595C17.6681 14.4285 17.8572 14.2283 18.011 14.002C18.195 13.757 18.462 13.581 18.651 13.329L19.1 12.9C19.4056 12.6053 19.6909 12.2902 19.954 11.957L20.594 11.337C20.794 11.075 21.07 10.892 21.261 10.637C21.3389 10.5129 21.438 10.4035 21.554 10.314C21.5388 10.3007 21.52 10.2924 21.5 10.29C21.3391 10.231 21.1709 10.1946 21 10.182C20.581 10.067 20.134 10.033 19.693 9.913C19.014 9.728 18.293 9.681 17.585 9.482C17.176 9.366 16.716 9.337 16.278 9.213C16.0347 9.13558 15.7845 9.08134 15.531 9.051C15.4492 8.85771 15.3415 8.67639 15.211 8.512C15.011 8.188 14.842 7.855 14.651 7.542C14.228 6.85 13.898 6.134 13.477 5.442C13.162 4.928 12.8 4.4 12.54 3.852H12.513C12.3353 4.29282 12.1021 4.70918 11.819 5.091C11.284 5.97 10.826 6.891 10.298 7.758C10.118 8.058 9.965 8.358 9.791 8.647C9.7405 8.81122 9.64855 8.95965 9.524 9.078L3.655 10.37C3.66152 10.3812 3.67082 10.3905 3.682 10.397L6.59 13.497C6.86692 13.7572 7.12554 14.0362 7.364 14.332C7.44124 14.3782 7.50747 14.4407 7.55807 14.5152C7.60867 14.5896 7.64243 14.6742 7.657 14.763C7.6228 14.8858 7.60497 15.0125 7.604 15.14C7.504 15.585 7.526 16.067 7.417 16.54C7.273 17.165 7.303 17.852 7.15 18.506C7.063 18.877 7.083 19.288 6.99 19.691C6.90239 20.0624 6.84883 20.4409 6.83 20.822H6.884C7.115 20.6702 7.36655 20.5524 7.631 20.472C8.025 20.296 8.418 20.091 8.831 19.906C9.631 19.55 10.414 19.138 11.231 18.775C11.6479 18.5135 12.0961 18.3055 12.565 18.156C12.814 18.3095 13.0833 18.4273 13.365 18.506C13.887 18.738 14.423 18.965 14.965 19.206C16.735 19.992 18.573 20.753 20.328 21.576L20.541 23.219C20.4511 23.319 20.3708 23.4271 20.301 23.542C20.1691 23.6686 20.0152 23.7703 19.847 23.842C19.7641 23.9104 19.6604 23.9485 19.553 23.95C19.3395 23.8692 19.134 23.7687 18.939 23.65C18.539 23.474 18.167 23.278 17.792 23.111C16.518 22.544 15.304 21.953 14.03 21.387C13.654 21.22 13.278 21.024 12.883 20.848C12.7515 20.7628 12.6074 20.699 12.456 20.659C12.3498 20.7312 12.2326 20.7859 12.109 20.821C11.751 20.981 11.394 21.164 11.015 21.333C9.77 21.889 8.546 22.521 7.28 23.084C6.875 23.264 6.436 23.464 6.026 23.677C5.81948 23.8267 5.58254 23.9291 5.332 23.977C5.2 23.877 5.015 23.854 4.878 23.762C4.7337 23.6401 4.59989 23.5063 4.478 23.362L5.439 15.524C5.22425 15.3446 5.03574 15.1358 4.879 14.904C4.748 14.729 4.562 14.604 4.425 14.419C4.158 14.062 3.731 13.806 3.464 13.449C3.26736 13.1925 3.05353 12.9496 2.824 12.722L2.531 12.453C2.18562 12.0153 1.8111 11.6013 1.41 11.214C1.067 10.855 0.747 10.478 0.4 10.128C0.214572 10.0053 0.0741542 9.8256 0 9.616C0.027629 9.53784 0.0454323 9.45655 0.053 9.374C0.120441 9.11602 0.259456 8.88236 0.454 8.7L8.164 7.219C8.24722 6.99609 8.36426 6.78731 8.511 6.6C8.754 6.2 8.943 5.776 9.178 5.388C9.878 4.238 10.436 3.001 11.126 1.859C11.405 1.397 11.626 0.908 11.9 0.459C11.9358 0.296949 12.0311 0.154217 12.167 0.059C12.21 0.027 12.337 0.028 12.38 0Z" fill="white"/>
</svg>
