<svg width="25" height="30" viewBox="0 0 25 30" fill="none" xmlns="http://www.w3.org/2000/svg">
<path fill-rule="evenodd" clip-rule="evenodd" d="M12.2197 0.0309696C14.4914 -0.0468364 16.7373 0.532689 18.6877 1.69997C19.3257 2.08497 20.4097 2.58797 19.9007 3.77397C19.749 4.07635 19.4872 4.30906 19.1691 4.42421C18.851 4.53936 18.5008 4.52818 18.1907 4.39297C18.0425 4.28598 17.9082 4.16103 17.7907 4.02097C16.9496 3.48535 16.0223 3.09901 15.0497 2.87897C12.3807 2.23113 9.56376 2.66539 7.21374 4.08697C5.98863 4.86357 4.94857 5.89919 4.16674 7.12097C3.61528 7.96423 3.18602 8.88133 2.89174 9.84497C2.32601 12.1385 2.53378 14.5547 3.48274 16.718C3.85335 17.5429 4.33443 18.3137 4.91274 19.009L6.71274 20.743L10.4127 24.737L12.4647 26.873L12.8377 26.532L15.3877 23.839L18.3417 20.712C18.8847 20.04 19.6707 19.558 20.2417 18.912C20.9598 18.0539 21.5274 17.0805 21.9207 16.033C22.6175 14.0622 22.715 11.9291 22.2007 9.90297C22.0126 9.24946 21.7842 8.60824 21.5167 7.98297C21.3713 7.80295 21.2463 7.60743 21.1437 7.39997C21.0681 7.15385 21.0684 6.89067 21.1444 6.6447C21.2205 6.39872 21.3689 6.18135 21.5703 6.0209C21.7716 5.86044 22.0166 5.76433 22.2734 5.74508C22.5301 5.72583 22.7867 5.78433 23.0097 5.91297C23.4701 6.37275 23.7932 6.95175 23.9427 7.58497C24.9519 9.96901 25.2121 12.6036 24.6887 15.139C23.4297 20.092 20.2477 21.875 17.5367 25.232L16.2307 26.532C15.7197 27.165 13.3677 29.844 12.6547 29.969C12.3711 29.9732 12.0916 29.9012 11.8453 29.7604C11.5991 29.6197 11.3951 29.4154 11.2547 29.169L8.27074 26.037C5.66574 23.262 2.39974 20.805 0.870736 17C0.486732 15.8759 0.226198 14.7134 0.093736 13.533C-0.0729867 12.2702 0.00064075 10.9873 0.310736 9.75197C0.761663 7.74081 1.70519 5.87319 3.05654 4.31693C4.40788 2.76066 6.1247 1.56452 8.05274 0.83597C8.91311 0.530859 9.79894 0.302959 10.6997 0.15497L12.2197 0.0309696ZM11.9707 7.52297C15.8997 7.46997 18.8377 10.905 17.0387 14.737C16.6385 15.5328 16.0383 16.211 15.2968 16.7049C14.5554 17.1987 13.6984 17.4913 12.8097 17.554C9.56574 18.054 6.63074 14.354 7.64774 11.083C7.8719 10.3483 8.25978 9.67403 8.78219 9.11092C9.30459 8.54781 9.94791 8.11053 10.6637 7.83197L11.9707 7.52297ZM12.2507 10.031C11.2157 10.445 10.5507 10.602 10.1367 11.61C9.94055 12.1141 9.91382 12.6685 10.0606 13.1891C10.2074 13.7098 10.5197 14.1686 10.9503 14.4961C11.3809 14.8236 11.9064 15.002 12.4474 15.0043C12.9884 15.0066 13.5154 14.8328 13.9488 14.5091C14.3823 14.1853 14.6985 13.7293 14.8498 13.2099C15.0011 12.6905 14.9791 12.1359 14.7873 11.6301C14.5955 11.1243 14.2442 10.6946 13.7866 10.4061C13.329 10.1176 12.7898 9.98592 12.2507 10.031Z" fill="white"/>
</svg>
