<svg width="25" height="24" viewBox="0 0 25 24" fill="none" xmlns="http://www.w3.org/2000/svg">
<path fill-rule="evenodd" clip-rule="evenodd" d="M16.255 9.79302C16.265 11.2437 16.275 12.6947 16.285 14.146C17.643 14.116 19.328 13.82 19.572 15.023C19.898 16.63 17.585 16.351 16.255 16.323V20.823L17.401 20.249C19.4812 19.1164 21.1323 17.3325 22.101 15.171C22.49 14.26 22.586 11.648 24.031 11.937C24.2178 11.9768 24.3922 12.0612 24.5392 12.1831C24.6862 12.305 24.8014 12.4608 24.875 12.637C24.9929 13.3056 25.0131 13.9877 24.935 14.662C24.925 16.2034 24.915 17.745 24.905 19.287C24.79 20.013 25.07 20.932 24.724 21.403C24.6045 21.5412 24.4541 21.6493 24.285 21.7186C24.1159 21.7878 23.9329 21.8162 23.7508 21.8015C23.5686 21.7868 23.3925 21.7294 23.2367 21.6339C23.0809 21.5384 22.9498 21.4076 22.854 21.252C22.6921 20.3138 22.6618 19.3576 22.764 18.411L22.704 18.441C22.1847 19.3136 21.4855 20.0656 20.653 20.647C17.81 22.916 13.436 25.015 8.44003 23.458C3.89303 22.038 1.01103 18.635 0.121031 13.511C-0.062914 12.3487 -0.0527764 11.164 0.151031 10.005C0.486123 7.90757 1.37979 5.93904 2.73819 4.30615C4.09659 2.67325 5.8696 1.43625 7.87103 0.72502C10.2112 -0.088929 12.7397 -0.193298 15.139 0.42502C18.1399 1.29417 20.6828 3.30064 22.226 6.01702C22.603 6.64502 23.706 8.49802 23.191 9.34202C22.775 10.024 22.012 9.76502 21.05 9.76502L16.255 9.79302ZM14.083 7.61702V3.74802C14.1544 3.29525 14.134 2.83275 14.023 2.38802C12.6184 2.02778 11.1456 2.02778 9.74103 2.38802L9.77103 7.61702H14.083ZM7.60003 14.146V9.79302C6.28803 9.82202 4.04203 10.107 4.31303 8.58402C4.53403 7.34302 6.15403 7.58402 7.60003 7.61702V3.17402C6.72731 3.51856 5.94377 4.05596 5.30803 4.74602C4.02198 5.9063 3.07181 7.39124 2.55717 9.04512C2.04253 10.699 1.98238 12.4609 2.38303 14.146H7.60003ZM16.255 7.61702L20.628 7.58702V7.55702C19.7023 5.64755 18.1624 4.10411 16.255 3.17402V7.61702ZM9.77103 9.79302V14.146H14.083V9.79302H9.77103ZM7.60003 16.322L3.16703 16.352C4.10399 18.2816 5.66641 19.8374 7.60003 20.766V16.322ZM9.77103 16.322V21.551C11.2061 21.8323 12.683 21.8221 14.114 21.521C14.104 19.7877 14.094 18.0544 14.084 16.321H9.77103V16.322Z" fill="white"/>
</svg>
