<svg width="25" height="23" viewBox="0 0 25 23" fill="none" xmlns="http://www.w3.org/2000/svg">
<path fill-rule="evenodd" clip-rule="evenodd" d="M17.0073 0.0660144C17.8653 0.0510144 19.3253 -0.119986 19.9003 0.232014C20.0455 0.339046 20.1657 0.47635 20.2526 0.634424C20.3395 0.792497 20.391 0.967565 20.4035 1.14751C20.4161 1.32745 20.3894 1.50798 20.3253 1.67658C20.2612 1.84519 20.1612 1.99786 20.0323 2.12401C19.4113 2.59801 16.6673 2.35701 15.5583 2.35601L3.55328 2.42301C2.02228 2.77001 2.30028 4.68601 2.30028 6.53801V15.267C2.17734 16.6816 2.19946 18.105 2.36628 19.515C2.70928 20.951 4.60628 20.677 6.34628 20.677H15.4583C16.7753 20.677 18.6353 20.907 19.6363 20.477C20.8483 19.957 20.4263 15.655 20.4253 13.806C20.4359 13.2973 20.4469 12.7883 20.4583 12.279C20.5457 12.0648 20.6942 11.881 20.8852 11.7505C21.0763 11.62 21.3015 11.5485 21.5329 11.545C21.7642 11.5415 21.9915 11.6061 22.1864 11.7307C22.3814 11.8553 22.5354 12.0345 22.6293 12.246C22.7842 13.5584 22.808 14.8829 22.7003 16.2C22.7003 18.084 23.0563 21 22.2073 22.108C21.4833 23.05 20.1073 22.971 18.4243 22.971H4.01328C2.77928 22.971 1.61328 23.031 0.92128 22.506C-0.24572 21.622 0.0662798 19.206 0.0662798 17.163L0.0332798 5.11101C0.0332798 2.81101 -0.16672 0.905014 1.44728 0.232014C2.33728 -0.137986 4.06628 0.100014 5.20028 0.100014H13.5883L17.0073 0.0660144ZM23.2243 2.29001C23.5336 2.26994 23.8422 2.33864 24.1138 2.48804C24.3854 2.63743 24.6087 2.86131 24.7573 3.13331C24.906 3.40531 24.9739 3.71412 24.953 4.02338C24.932 4.33265 24.8232 4.62951 24.6393 4.87901L13.8823 15.8C13.1243 16.565 11.2173 19.26 9.67128 18.09C7.72828 16.619 10.8633 14.463 11.5463 13.609L18.9803 6.10901C20.2433 4.83301 21.5173 3.06101 23.2243 2.29001Z" fill="white"/>
</svg>
