<svg width="25" height="25" viewBox="0 0 25 25" fill="none" xmlns="http://www.w3.org/2000/svg">
<path fill-rule="evenodd" clip-rule="evenodd" d="M11.8246 0.0300046C14.8088 -0.11384 17.7462 0.812815 20.1077 2.643C20.3147 2.795 20.5077 2.936 20.7077 3.088L20.9177 3.326C21.0984 3.41386 21.2611 3.53458 21.3977 3.682C21.5569 3.95796 21.6144 4.28105 21.5599 4.59499C21.5054 4.90893 21.3426 5.19382 21.0997 5.4C20.0467 6.08801 19.2427 4.741 18.6687 4.331C17.6776 3.62443 16.5838 3.07435 15.4256 2.7C14.9927 2.558 14.5806 2.546 14.1046 2.433C13.4552 2.28617 12.7877 2.23629 12.1236 2.285C11.8056 2.356 11.4337 2.297 11.1037 2.374C10.3501 2.50534 9.60759 2.69389 8.88265 2.938C7.60778 3.42927 6.4425 4.1675 5.45369 5.11032C4.46489 6.05313 3.67203 7.18196 3.12065 8.432C2.94684 8.89068 2.79664 9.35796 2.67065 9.832C2.20252 11.4669 2.1612 13.1946 2.55065 14.85C2.8273 15.8996 3.24085 16.9083 3.78065 17.85C4.978 19.7607 6.75533 21.238 8.85265 22.066C9.35326 22.2383 9.86471 22.3772 10.3836 22.482C11.5628 22.7633 12.7853 22.8139 13.9837 22.631C14.6956 22.5038 15.3974 22.3253 16.0837 22.097C18.3992 21.1782 20.3279 19.4903 21.5457 17.317C22.0244 16.3911 22.3679 15.4014 22.5657 14.378C22.6397 14.093 22.5867 13.85 22.6557 13.547C22.7516 12.9782 22.7717 12.3991 22.7157 11.825L22.5657 10.637C22.4288 10.2983 22.3873 9.92861 22.4457 9.568C22.4971 9.39527 22.5873 9.23654 22.7093 9.10384C22.8313 8.97114 22.9819 8.86797 23.1497 8.80214C23.3175 8.73631 23.4981 8.70956 23.6777 8.72392C23.8574 8.73828 24.0314 8.79337 24.1867 8.885C24.7147 9.212 24.6157 9.821 24.7867 10.518C25.1204 12.2475 25.0277 14.0323 24.5167 15.718C24.3212 16.4023 24.0909 17.0762 23.8267 17.737C22.4051 20.7565 19.8487 23.0926 16.7137 24.237C15.9389 24.4926 15.1464 24.6911 14.3427 24.831L13.2027 24.95C12.6026 25.0069 11.9977 24.9871 11.4026 24.891C10.8146 24.758 10.2407 24.808 9.69165 24.653C8.9141 24.4382 8.15202 24.1709 7.41065 23.853C4.532 22.6006 2.2442 20.2906 1.01965 17.4C0.79965 16.9 0.69165 16.406 0.50965 15.855C0.33565 15.326 0.26065 14.694 0.11965 14.1L0.0596501 13.09C-0.027624 12.5482 -0.0174646 11.9952 0.0896501 11.457L0.14965 10.685C0.281751 9.89137 0.472269 9.10858 0.71965 8.34301C1.31841 6.69371 2.25123 5.18579 3.45969 3.91366C4.66816 2.64153 6.12624 1.63259 7.74265 0.950005C8.62066 0.621195 9.52353 0.363041 10.4426 0.178005L11.8246 0.0300046ZM12.6646 3.474C13.0195 3.47916 13.3722 3.52889 13.7147 3.622C13.9446 3.68 14.1217 3.648 14.3447 3.711C14.8943 3.84584 15.4356 4.01279 15.9656 4.211C16.3771 4.34871 16.7781 4.51581 17.1657 4.711C18.2698 5.36927 19.228 6.246 19.9814 7.2875C20.7349 8.329 21.2679 9.51334 21.5477 10.768C21.7729 12.0195 21.732 13.3044 21.4277 14.539C21.3605 14.9109 21.2703 15.2783 21.1577 15.639C20.7142 16.7809 20.048 17.8232 19.1979 18.7051C18.3477 19.5871 17.3305 20.291 16.2057 20.776C15.6021 21.0231 14.9798 21.2218 14.3447 21.37L13.4747 21.459C13.1023 21.5549 12.7178 21.595 12.3336 21.578C11.4027 21.4764 10.4801 21.3093 9.57265 21.078C7.36266 20.2506 5.55676 18.603 4.53065 16.478C4.28794 15.8862 4.07763 15.2817 3.90065 14.667C3.52281 13.4131 3.48143 12.0819 3.78065 10.807C3.83519 10.426 3.91537 10.0492 4.02065 9.679C4.52798 8.46856 5.19344 7.33066 5.99965 6.295C6.16715 6.10431 6.35876 5.93624 6.56965 5.795C6.79965 5.623 6.99965 5.388 7.23265 5.226C8.16273 4.58902 9.18492 4.09833 10.2636 3.771C10.7147 3.634 11.2157 3.607 11.6447 3.504C11.9841 3.54806 12.3284 3.53794 12.6646 3.474ZM11.9446 9V4.958C10.7494 4.95401 9.58737 5.35121 8.64465 6.086C8.31556 6.23325 8.01964 6.4455 7.77465 6.71C8.09311 6.92268 8.36804 7.19421 8.58465 7.51L9.03465 7.926C9.33965 8.226 9.63465 8.545 9.93465 8.846C10.1266 9.12249 10.3844 9.34688 10.6847 9.499C11.0634 9.243 11.4934 9.0727 11.9446 9ZM13.3246 4.962V8.967H13.3546V9C13.8331 9.1116 14.2967 9.27944 14.7357 9.5C14.921 9.2598 15.1322 9.04081 15.3657 8.847C15.5366 8.67801 15.6786 8.486 15.8456 8.313C16.1737 8.01452 16.4842 7.69732 16.7757 7.363C17.0498 7.15126 17.2923 6.9014 17.4957 6.621C17.1287 6.4487 16.7858 6.22917 16.4757 5.968C15.5463 5.33114 14.451 4.98006 13.3246 4.958V4.962ZM5.07165 11.847H9.09365C9.20646 11.3614 9.37771 10.8914 9.60365 10.447C9.16693 10.1431 8.79053 9.76056 8.49365 9.31901C8.1754 8.98905 7.83458 8.68164 7.47365 8.399C7.26458 8.12343 7.02281 7.87428 6.75365 7.657C6.64728 7.81607 6.51553 7.95661 6.36365 8.073C6.25865 8.215 6.15265 8.373 6.06365 8.518C5.45323 9.52435 5.11164 10.6707 5.07165 11.847ZM16.1717 11.847H20.1997C20.2477 9.88801 19.2507 8.858 18.5187 7.661H18.4887V7.69C17.7177 8.29732 17.0224 8.99498 16.4177 9.768C16.081 9.95239 15.8167 10.2453 15.6677 10.599C15.8313 10.7627 15.9606 10.9574 16.048 11.1717C16.1354 11.386 16.1791 11.6156 16.1767 11.847H16.1717ZM12.2997 10.3C12.1177 10.431 11.7636 10.4 11.5796 10.508C11.0394 10.8428 10.6355 11.3584 10.4396 11.963C10.3382 12.4797 10.4096 13.0155 10.6427 13.4877C10.8758 13.9599 11.2577 14.3423 11.7296 14.576C12.0343 14.7639 12.3957 14.8376 12.7497 14.784C13.1675 14.7252 13.5652 14.5675 13.9097 14.324C14.2543 14.0805 14.5357 13.7582 14.7306 13.384C15.4806 11.678 13.9517 10.289 12.2997 10.3ZM5.06665 13.21C5.01865 15.166 6.01665 16.199 6.74765 17.396H6.80765C7.01314 17.1627 7.24464 16.9537 7.49765 16.773L8.87865 15.259C9.2043 15.0841 9.45887 14.8012 9.59865 14.459C9.27017 14.1273 9.08675 13.6788 9.08865 13.212H5.07165L5.06665 13.21ZM16.1667 13.21C16.155 13.5896 16.041 13.9589 15.8366 14.279C15.7548 14.3511 15.6928 14.4431 15.6566 14.546C15.7012 14.6126 15.7413 14.6821 15.7767 14.754C15.9351 14.9267 16.1168 15.0765 16.3167 15.199C16.5526 15.4213 16.7732 15.6596 16.9767 15.912L17.6367 16.536C17.8725 16.873 18.1672 17.1647 18.5067 17.397C18.6123 17.2374 18.7442 17.0967 18.8967 16.981C19.0016 16.842 19.1077 16.681 19.1967 16.536C19.8081 15.5317 20.1492 14.3862 20.1867 13.211H16.1767L16.1667 13.21ZM11.9446 20.1V16.063C11.5732 16.0412 11.2128 15.9289 10.8947 15.736C10.8198 15.6564 10.7273 15.5954 10.6247 15.558C9.92465 16.229 9.24465 16.923 8.55365 17.607C8.25325 17.8311 7.99002 18.101 7.77365 18.407C7.89857 18.4998 8.00968 18.6099 8.10365 18.734C8.24965 18.843 8.40365 18.967 8.55365 19.061C9.57564 19.6936 10.7437 20.0515 11.9446 20.1ZM13.3246 16.062V20.1C14.6985 20.0366 16.0238 19.5721 17.1367 18.764L17.4967 18.378V18.32C17.2126 18.0993 16.9513 17.8507 16.7167 17.578L15.4267 16.331C15.2346 15.999 14.9398 15.7386 14.5866 15.589C14.1916 15.8082 13.7663 15.968 13.3246 16.063V16.062Z" fill="white"/>
</svg>
