<svg width="20" height="25" viewBox="0 0 20 25" fill="none" xmlns="http://www.w3.org/2000/svg">
<path fill-rule="evenodd" clip-rule="evenodd" d="M17.7386 14.7274V6.27421C17.7386 5.05969 17.8986 3.46776 17.3618 2.77824C16.8466 2.12018 15.133 2.29921 13.993 2.29921H5.68022C4.51062 2.29921 3.03222 2.16776 2.54742 2.87421C2.00022 3.6605 2.24022 6.2355 2.24022 7.56695V17.3855C2.24022 18.667 2.02022 20.8532 2.40502 21.8153C2.83302 22.8839 4.56982 22.654 6.03302 22.6532C6.46132 22.5956 6.89686 22.6707 7.28182 22.8686C7.4316 22.9982 7.54697 23.1635 7.61749 23.3493C7.68801 23.5352 7.71147 23.7359 7.68574 23.9332C7.66002 24.1305 7.58591 24.3183 7.47013 24.4795C7.35435 24.6407 7.20055 24.7702 7.02262 24.8565C6.20604 25.0026 5.37258 25.0267 4.54902 24.9282C2.87942 24.9282 1.27622 25.0815 0.544219 24.1379C-0.159781 23.2379 0.0234188 21.371 0.0234188 19.7581V3.85566C0.0234188 2.67743 -0.0293812 1.5976 0.447419 0.933886C1.28982 -0.241921 3.14182 0.0475953 5.08822 0.0475953L15.241 0.0234017C17.3666 0.0234017 18.8946 -0.213695 19.693 1.19679C20.1226 1.95566 19.9522 3.53953 19.9522 4.69276V15.2774C19.9973 15.6208 19.9813 15.9695 19.905 16.3073C19.4639 16.8894 18.9591 17.4196 18.4002 17.8879L14.8434 21.5274L12.2034 24.2331C12.077 24.468 11.884 24.6596 11.649 24.7833C11.414 24.907 11.1477 24.9572 10.8842 24.9274C10.6984 24.8876 10.5247 24.8039 10.3773 24.6832C10.2299 24.5625 10.113 24.4082 10.0362 24.2331C9.93311 23.6473 9.9172 23.0494 9.98902 22.4589V18.4629C9.92902 17.7682 9.95266 17.0688 10.0594 16.3799C10.1547 16.052 10.3202 15.7491 10.5441 15.4926C10.768 15.2361 11.0449 15.0322 11.3554 14.8952C12.0948 14.7132 12.8591 14.6565 13.617 14.7274H17.7394H17.7386ZM4.26422 5.69921H13.7842C15.0322 5.69921 16.893 5.4734 16.6586 6.92018C16.4634 8.12502 15.3146 7.95001 13.9498 7.95001H6.83142C5.89887 8.02901 4.9608 8.01307 4.03142 7.90243C3.87212 7.82747 3.73111 7.71814 3.61835 7.58218C3.50559 7.44621 3.42385 7.28693 3.3789 7.11561C3.33395 6.94428 3.32689 6.76509 3.35822 6.59071C3.38955 6.41633 3.45851 6.25102 3.56022 6.10647C3.75722 5.91325 3.99934 5.77319 4.26422 5.69921ZM4.26422 10.225H13.7842C15.033 10.225 16.893 9.9984 16.6586 11.446C16.4626 12.6557 15.2986 12.4758 13.9258 12.4758H6.80822C5.86666 12.574 4.91649 12.5499 3.98102 12.404C3.82882 12.3242 3.69537 12.2124 3.58967 12.0762C3.48397 11.9399 3.40849 11.7824 3.3683 11.6143C3.32812 11.4461 3.32417 11.2712 3.35672 11.1014C3.38928 10.9316 3.45758 10.7708 3.55702 10.6299C3.75519 10.4371 3.99844 10.2978 4.26422 10.225ZM13.9442 16.9992C13.5237 17.0601 13.1125 17.1742 12.7202 17.3387C11.9882 17.8887 12.1906 19.7468 12.2018 21.0266L16.1362 17.0032H13.9458L13.9442 16.9992Z" fill="white"/>
</svg>
