<svg width="30" height="30" viewBox="0 0 30 30" fill="none" xmlns="http://www.w3.org/2000/svg">
<path fill-rule="evenodd" clip-rule="evenodd" d="M14.439 0.0470007C17.9709 -0.128113 21.4497 0.96023 24.252 3.117C24.978 3.65 26.907 4.727 25.934 6.14C25.6851 6.43289 25.334 6.61999 24.9521 6.66327C24.5702 6.70655 24.1861 6.60276 23.878 6.373L22.944 5.4C21.2486 4.0982 19.2587 3.23408 17.15 2.884C16.3867 2.69282 15.5968 2.63063 14.813 2.7C10.192 3.454 7.529 4.709 5.327 7.816C4.33006 9.29241 3.66021 10.9649 3.36236 12.7213C3.06451 14.4777 3.14553 16.2775 3.6 18C3.87071 18.9236 4.2465 19.8131 4.72 20.651L5.327 21.628C5.603 22.728 4.34 25.295 3.972 26.047C5.022 25.803 7.702 24.705 8.925 24.977L10.28 25.677L12.943 26.514C14.6602 26.8477 16.429 26.8084 18.1296 26.3988C19.8303 25.9892 21.423 25.2189 22.8 24.14C24.813 22.605 28.042 18.166 27.379 14.093L27.1 12.047C26.9 11.259 26.157 10.287 26.446 9.347C26.5409 9.11115 26.6967 8.90476 26.8976 8.74898C27.0985 8.5932 27.3372 8.49362 27.5893 8.46045C27.8413 8.42727 28.0976 8.4617 28.332 8.5602C28.5664 8.6587 28.7703 8.81773 28.923 9.021C30.466 11.453 30.157 17.032 29.11 19.672C28.257 22.0545 26.7942 24.1717 24.8673 25.8121C22.9405 27.4526 20.6171 28.559 18.129 29.021C16.4095 29.403 14.6325 29.4506 12.895 29.161C11.6802 28.943 10.491 28.6008 9.346 28.14L7.846 27.349C7.00794 27.2626 6.16295 27.4243 5.416 27.814C3.516 28.471 1.826 29.437 0 30V29.954C0.922 27.675 2.335 25.254 2.523 22.419C2.572 21.681 1.837 20.911 1.588 20.326L0.7 17.349C0.243334 14.8631 0.438148 12.3014 1.26547 9.91317C2.0928 7.52495 3.52444 5.39166 5.421 3.721C7.10293 2.3237 9.03863 1.26401 11.122 0.600001C12.07 0.312001 13.483 0.420001 14.439 0.0470007ZM10.187 7.581L11.542 7.767C11.991 9.067 12.972 10.057 13.042 11.767C12.3924 12.2058 11.9268 12.8682 11.734 13.628C12.2327 14.8336 13.0012 15.9087 13.9806 16.7706C14.9599 17.6326 16.1239 18.2584 17.383 18.6C17.8404 17.7575 18.5631 17.0896 19.439 16.7C20.439 16.945 22.563 17.945 22.85 18.886C22.8954 19.0854 22.8981 19.2921 22.8578 19.4926C22.8174 19.6931 22.735 19.8827 22.616 20.049C21.851 21.809 19.84 22.449 17.429 21.723C13.396 20.506 10.868 17.81 8.929 14.514C7.117 11.445 7.454 9.334 10.187 7.581Z" fill="#777777"/>
</svg>
