<svg width="30" height="27" viewBox="0 0 30 27" fill="none" xmlns="http://www.w3.org/2000/svg">
<path fill-rule="evenodd" clip-rule="evenodd" d="M27.566 0L28.9 0.223C29.3055 0.567448 29.6445 0.983323 29.9 1.45C30.241 2.436 29.525 5.496 29.23 6.581C27.979 11.187 27.562 16.258 26.33 20.858C25.762 22.977 26.12 26.375 23.875 26.77C23.5015 26.9306 23.0962 27.0041 22.6901 26.9846C22.2839 26.9652 21.8875 26.8535 21.531 26.658L16.071 22.42C14.028 23.156 13.813 25.749 10.937 25.766C10.624 25.5642 10.3256 25.3407 10.044 25.097C9.256 24.018 8.709 21.331 8.258 19.966C7.948 19.026 7.931 17.775 7.365 17.066C6.1 16.13 3.04 15.79 1.451 15.058C0.86109 14.6489 0.366206 14.1175 -2.56952e-06 13.5C-0.00821951 12.9344 0.0669203 12.3707 0.222997 11.827C0.655997 11.558 0.993997 11.063 1.451 10.827C2.017 10.527 2.543 10.527 3.125 10.269C4.935 9.469 6.811 8.743 8.7 7.919C12.579 6.232 16.647 4.475 20.53 2.788C22.42 1.967 24.304 1.227 26.11 0.446C26.6075 0.34026 27.0947 0.191019 27.566 0V0ZM27.342 2.454C26.747 2.79926 26.1078 3.062 25.442 3.235C23.633 4.027 21.747 4.753 19.862 5.577C16.13 7.21 12.3 8.713 8.482 10.373C6.62324 11.3571 4.68263 12.1782 2.682 12.827V13.05C5.1 13.329 7.01 14.994 9.486 15.169C10.557 14.125 12.204 13.513 13.504 12.715C15.767 11.326 18.018 9.715 20.312 8.365C20.812 8.071 23.684 6.302 23.883 6.465L24.106 6.577C24.0946 6.66175 24.0552 6.74025 23.994 6.8C23.716 7.57 20.539 10.222 19.753 10.815L18.3 12.381C17.4751 12.9978 16.6921 13.6686 15.956 14.389L14.956 15.504C14.0981 16.0784 13.3112 16.7524 12.612 17.512L11.719 23.089H11.83C13.0669 21.714 14.4516 20.4796 15.959 19.408C16.3243 19.7617 16.7377 20.062 17.187 20.3C18.497 21.26 19.75 22.338 21.093 23.312C21.751 23.788 22.164 24.571 23.213 24.65L23.325 24.315L27.677 2.454H27.342Z" fill="#7A7A7A"/>
</svg>
